<?xml version="1.0" encoding="utf-8"?>
<!-- Generator: Adobe Illustrator 22.1.0, SVG Export Plug-In . SVG Version: 6.00 Build 0)  -->
<svg enable-background="new 0 0 102 102" version="1.1" viewBox="0 0 102 102" xml:space="preserve" xmlns="http://www.w3.org/2000/svg">
  <path fill="#747474" d="m51 102c-28.2 0-51-22.8-51-51s22.8-51 51-51 51 22.8 51 51-22.8 51-51 51zm-24-50.7c-0.4-0.3-1.6-0.3-2 0.1-1.8 1.8-3.4 3.6-4.9 5.6-0.4 0.5-0.3 1.8 0.2 2.3 1.3 1.5 12.9 11.9 17.2 15.7 1.6 1.4 3.6 2.4 5.6 0.6 1.7-1.4 36.9-39.8 38.8-42.3 0.4-0.6 0.4-2.2-0.1-2.7-1.6-1.8-3.4-3.4-5.2-4.9-0.4-0.3-1.5-0.2-1.9 0.1-2 2-30.8 33.9-34.1 37.5-0.6-0.4-9.4-8.4-13.6-12z"/>
</svg>
