<?xml version="1.0" encoding="utf-8"?>
<!-- Generator: Adobe Illustrator 22.1.0, SVG Export Plug-In . SVG Version: 6.00 Build 0)  -->
<svg version="1.1" id="Layer_1" xmlns="http://www.w3.org/2000/svg" xmlns:xlink="http://www.w3.org/1999/xlink" x="0px" y="0px"
	 viewBox="0 0 1201.9 301.9" enable-background="new 0 0 1201.9 301.9" xml:space="preserve">
<g>
	<g>
		<path d="M684,216.9c2.1-2.4,3.9-4.2,5.5-6.3c8-10.7,15.8-21.4,23.8-32.1c7.7-10.3,14.5-21.4,23.7-30.5c3.1-3.1,6.7-5.7,10.1-8.4
			c1.7-1.4,3.8-0.9,5.3,0.2c6.7,5,13.2,10.4,16.5,18.5c2,4.8,1.8,9.9,1,14.9c-0.9,6.3-1.9,12.6-3.4,18.7c-2,7.9-4.5,15.6-7.1,23.3
			c-3.3,9.9-6.3,19.9-7.6,30.3c-1.3,10.7-2.6,21.3-3.8,32c-0.5,4.7-0.6,9.5-1.1,14.3c-0.2,2-1.1,3.7-3.5,4c-2.9-0.6-4.6-3-6.3-5.1
			c-4.8-5.9-6.6-13-8.3-20.2c-1-4.1-2.5-8.2-2-12.6c0.9-7.4,1.5-14.9,2.3-22.3c0.9-7.4,1.8-14.8,3-22.2c0.5-3.4,1.7-6.6,2.5-9.9
			c0.6-2.6,1-5.2,1.5-7.8c-0.3-0.2-0.6-0.3-0.9-0.5c-2.7,3.2-5.7,6.2-7.9,9.7c-6.9,11-13.6,22-20.1,33.2c-2.7,4.6-4.6,9.6-7,14.4
			c-1,2-2.4,3.8-3.3,5.1c-5.8,1-9.2-2.1-12.1-5c-5.9-5.7-11.6-11.8-15.2-19.3c-2.7-5.4-4.6-11.2-6.5-16.9c-1.4-4.1-2.5-8.4-3.7-12.6
			c-0.4,0-0.8,0-1.2,0c-0.6,2.6-1.4,5.1-1.9,7.8c-1.3,6.6-2.5,13.2-3.7,19.8c-1.3,7.3-2.6,14.5-4,21.8c-1.1,5.8-2.3,11.6-3.4,17.5
			c-1.2,6.6-2.1,13.1-3.5,19.7c-0.4,2.1-1.7,4.1-2.6,5.9c-3.7-0.2-5.8-2.1-7.8-3.9c-3.5-3.1-6.7-6.5-10.3-9.5
			c-6.2-5.2-7.1-11.9-5.5-19.2c1.5-6.9,3.5-13.8,5-20.7c1.5-7.1,2.7-14.3,4-21.4c1.2-6.1,2.2-12.3,3.6-18.4
			c2.5-10.9,5.1-21.7,7.9-32.5c0.7-2.8,2-5.7,3.9-7.7c2-2.1,5.2-1.3,8-0.8c8,1.5,12.9,7.4,18.6,12.3c7.1,6,10.2,13.8,11.7,22.7
			c1,5.7,2.4,11.4,3.8,17.1C682.3,214.9,683.2,215.6,684,216.9z"/>
		<path d="M384.6,246.1c0.9-3.6,1.9-7.2,2.7-10.8c1.2-5,2.2-10,3.5-15c1.7-6.9,3.5-13.8,5.3-20.6c1.7-6.6,3.5-13.3,5.3-19.9
			c1.6-5.7,3.3-11.3,5.1-17c2.3-7.3,7.4-12,14.3-14.7c5.2-2.1,10.7-3.3,16.4-3c2,0.1,3.7,0.8,4.5,2.5c0.8,1.8,0.8,3.7-0.6,5.4
			c-1.2,1.4-2.5,2.8-3.8,4.2c-5.4,5.5-7.4,12.7-9.5,19.8c-2.5,8.5-4.9,17-7.1,25.6c-2.9,11.5-5.6,23.1-8.5,34.6
			c-1.4,5.6-3,11.2-4.2,16.9c-1.1,5.1-1.6,10.3-2.5,15.5c-0.8,4.4-1.7,8.8-2.9,13.2c-1.2,4.4-5,5.9-8.9,6.3
			c-5.1,0.4-10.2,0.1-15.2-1.6c-4.7-1.6-7.2-5.1-9.3-9c-3.2-6.2-6.4-12.4-9-18.9c-2.9-7.2-5.4-14.5-7.5-21.9
			c-3-10.3-5.4-20.7-8.7-31.3c-1.3,3.7-2.7,7.3-3.7,11c-2.5,9.7-4.9,19.5-7.2,29.2c-1.9,8.1-3.5,16.2-5.4,24.3
			c-1.4,5.9-2.8,11.9-4.6,17.7c-1.5,4.6-3.8,5-8.7,4.8c-3.9-0.1-7.7-1-11.6-1.2c-4.1-0.3-7.3-3.7-6.7-7.3c0.8-4.8,1.3-9.6,2.5-14.3
			c2.8-10.9,6.1-21.8,8.9-32.7c3.1-12.2,5.8-24.6,8.9-36.9c1.1-4.3,2.8-8.5,4-12.8c0.9-3,1.5-6,2.1-9c1.1-6,4.5-10.1,9.9-12.7
			c3.2-1.5,6.3-3.3,9.6-4.4c5.2-1.7,8.9-2.1,13.6,2.7c5.8,6,9.1,13.1,10.7,21.2c1.5,7.2,3.2,14.4,5.2,21.5
			c3.5,11.9,7.3,23.7,11,35.6c0.3,1,0.8,2,1.2,3C384,246.1,384.3,246.1,384.6,246.1z"/>
		<path d="M309.6,132.9c-0.1,1.5,0,2.7-0.4,3.9c-3.3,10.2-6.6,20.4-9.9,30.6c-2.9,9-5.7,18.1-8.8,27.1c-3.1,8.8-6.5,17.5-10.1,26.2
			c-3.5,8.4-6.9,16.8-11.3,24.7c-4,7.3-9,14-13.7,20.9c-2.1,3.2-4.2,6.4-6.8,9.3c-2.4,2.7-5.2,5.3-8.3,7.3
			c-6.2,4.2-12.5,8.4-19.2,11.7c-6.1,3-12.9,3.1-19.6,2.7c-4.1-0.3-8.3-0.5-12.3-1.5c-5.3-1.3-10.5-3.2-15.7-5.2
			c-2.5-0.9-4.7-2.5-7-3.8c-7.2-4.3-10.2-11.7-13.1-18.9c-2.9-7.1-4.3-14.6-3.7-22.4c0.4-6.2,0.8-12.4,3.2-18.2
			c0.2-0.6,0.2-1.3,0.2-1.9c-0.5-7.2,1.1-14.2,2.7-21.2c1.3-5.7,1.9-11.6,3.1-17.3c1.8-8.6,4.5-16.8,10.6-23.5
			c3.6-4,8.4-5.9,13.6-6.7c2.6-0.4,5.1-1.3,7.7-1.2c3,0,6.1,0.7,9,1.4c0.6,0.1,1.3,1.7,1.2,2.6c-0.3,4.2-0.3,8.5-1.2,12.5
			c-2.1,8.5-4.8,16.9-7.2,25.3c-2.1,7.2-4.5,14.3-6.3,21.6c-2.2,9.4-2.9,19-2.7,28.7c0.1,7,1.3,13.9,4,20.4
			c2.6,6.3,6.6,11.5,12.2,15.3c3.3,2.2,7,1.6,10.2-0.1c12.3-6.2,21.9-15.4,28-27.7c6.3-12.7,11.8-25.8,17.6-38.7
			c3.5-8,7-16.1,10.1-24.2c3-7.9,5.6-16,8.2-24.1c3.2-10.1,6.3-20.2,9.5-30.3c0.6-1.8,1.6-3.4,3.7-4c1.3-0.5,2.5-1.4,3.8-1.8
			c1.3-0.3,2.8-0.6,3.9-0.2c3,1.1,5.9,1.4,9.1,0.8C305.7,132.6,307.3,132.9,309.6,132.9z"/>
		<path d="M1085.4,157c1.7-3.5,4.5-4.7,7.3-5.7c7.7-2.9,15.8-4.3,24.1-3.7c7.8,0.6,15.6,1.3,23.2,2.6c6.4,1.1,12.7,2.7,18.8,4.6
			c5.3,1.6,10.6,3.4,15.5,5.9c12.2,6.3,19.8,16.6,24.3,29.4c2.8,8,3.9,16.2,3.5,24.6c-0.5,9.4-2.7,18.5-7.1,26.9
			c-8,15.4-20.5,26.2-35.5,34.2c-6.6,3.5-13.6,6.4-21.1,7.8c-5.9,1.1-11.8,2-17.8,2.9c-6.4,0.9-12.7,1.8-19.1,2.6
			c-2.1,0.3-4.3,0.3-6.4,0c-3.2-0.5-4.6-3.2-5.7-5.9c-3.8-9.4-4-19.2-2.4-29.1c1.3-8.4,2.7-16.8,4.1-25.1c0.8-4.6,1.8-9.2,2.5-13.8
			c0.9-5.4,1.6-10.9,2.2-16.3c0.7-5.5,1.2-11.1,1.7-16.6c0.4-4.8,0.9-9.5,1-14.3c0-1.1-0.9-2.6-1.9-3.2c-2.5-1.8-5.3-3.2-7.9-4.8
			C1087.7,158.9,1086.6,157.9,1085.4,157z M1122.8,168.7c-0.1,1.3-0.2,2.7-0.2,4.1c0,10.7,0.3,21.4,0,32.1
			c-0.3,10.9-1.1,21.8-1.9,32.7c-0.4,5.2-1.2,10.4-1.7,15.7c-0.4,4.2-0.9,8.4-1.1,12.5c-0.1,2.2,1.4,3.8,3.3,4.1
			c2.2,0.4,4.7,0.5,6.9-0.1c5.6-1.6,11-3.5,16.5-5.5c12.2-4.5,21.8-11.9,26.7-24.4c3.4-8.6,5.3-17.5,3.7-26.8
			c-2.6-14.7-10.4-26-23.3-33.4c-6.8-3.9-14-7-21.2-10.3C1128.4,168.5,1125.9,167.3,1122.8,168.7z"/>
		<path d="M1060.4,263.6c-3.1,2-6.4,4.4-9.9,6.4c-7,3.9-14,7.9-21.3,11.2c-6.8,3.1-13.8,5.7-21,7.7c-3.8,1-8.3,0.8-12.2,0
			c-9.7-1.8-18.4-6.2-26.5-11.6c-4.3-2.8-6.4-7.2-5.7-12.4c1.6-11.2,3.2-22.3,4.9-33.4c1.6-10.3,3.5-20.6,5.4-30.9
			c0.6-3.2,1.3-6.3,3.9-8.7c0.8-0.8,1.3-2,1.7-3.1c0.9-2.4,0-3.5-2.4-4.2c-2.7-0.8-5.3-1.8-7.8-3c-2-0.9-2.3-4.1-0.5-6.3
			c2-2.6,4.5-4.4,7.9-5.1c4.6-0.9,9.2-2.2,13.8-3.2c3.2-0.7,6.4-0.9,9.6-1.5c3.6-0.7,7.3-1.4,10.9-2.3c3.5-0.8,7.1-1.7,10.6-2.5
			c3.4-0.8,6.8-1.9,10.3-2.5c6.6-1.2,13.2-2.5,19.9-3.1c2-0.2,4.5,1.6,6.4,3c1.6,1.2,1.3,3.9-0.6,5.2c-6.3,4.4-12.1,9.7-20.3,10.9
			c-6.3,0.9-12.5,2.4-18.8,3.7c-3.2,0.7-6.3,1.4-10.5,2.4c-0.3,0.8-1.2,2.2-1.5,3.8c-1,5.3-1.7,10.6-2.7,16c-1.2,6.5-2.5,13-3.8,20
			c4.2-1.2,7.9-2.2,11.5-3.2c4-1.1,8-2.3,12-3.4c4-1.2,8-2.3,12-3.5c3.9-1.1,7.7-2.2,11.6-3.2c3.1-0.9,6.2-1.6,9.2-2.6
			c3.9-1.3,10,1.2,10,5.1c0,1.8-0.5,3.1-1.9,4c-6.1,4-12.1,8-18.3,11.9c-4.4,2.7-9.2,4.5-14.3,5.6c-3.2,0.6-6.3,1.6-9.4,2.3
			c-5.2,1.2-10.4,2.2-15.8,0.8c-2.6-0.7-5.3-0.9-8.2-1.4c-0.3,0.8-0.6,1.5-0.7,2.2c-0.5,5.1-1,10.2-1.4,15.2
			c-0.4,4.5-1.1,9-1.3,13.6c-0.1,2.7,0.1,5.6,2.7,7.5c2.6,1.9,5.1,0.7,7.4-0.3c10.2-4.2,20.3-8.6,30.5-12.8
			c7.1-2.9,14.4-3.7,21.7-0.4C1059.7,258.5,1060.5,260.4,1060.4,263.6z"/>
		<path d="M967.2,157.1c-2.8,2.6-26.1,9.7-37.5,11.4c-0.5,1.7-1.2,3.6-1.7,5.6c-2.6,10.7-5.2,21.4-7.7,32.1
			c-3.2,13.5-6.7,26.9-9.4,40.4c-2.6,13.2-5,26.4-4.7,40c0.1,4.9-0.4,9.7-0.6,14.6c-2.5,1.8-5.2,1.3-7.2,0
			c-5.7-3.8-11.1-7.9-16.4-12.2c-1.1-0.9-1.9-2.8-2.1-4.3c-0.8-5.8-1.5-11.6-1.8-17.4c-0.2-4.2,0.3-8.4,0.9-12.6
			c1.2-8.1,2.7-16.1,4.2-24.1c1.1-6.1,2.1-12.2,3.5-18.2c1.3-5.8,3.1-11.4,4.4-17.2c1-4.5,1.5-9.1,2.3-13.6c0.3-2.2,0.6-4.3,1-6.6
			c-2.2,0-4.3,0-6.3,0c-4.6,0-9.2-0.1-13.8-0.1c-3.8,0-7.5-0.6-11.2-1.9c-2.9-1-4.8-2.5-5.1-5.9c1.5-2.7,4.4-3.3,7-3.8
			c6.6-1.2,13.3-2,19.9-3c5.8-0.9,11.6-1.7,17.4-2.6c4.7-0.7,9.4-1.4,14.1-2.2c4.7-0.8,9.3-1.9,14-2.5c9.7-1.2,19.3-3.9,29.1-1.4
			c0.3,0.1,0.6,0.1,1,0.1C963.9,151.9,966.2,153.5,967.2,157.1z"/>
		<path d="M475.1,269.9c4.2,0.8,7.7-0.1,11.2-1.3c5.3-1.7,10.5-3.6,15.8-5.4c5.3-1.8,10.6-3.9,16-5.4c4.3-1.2,8.9-1.7,13.2-2.4
			c1.8,1.1,3.4,2.1,4.9,3c0.1,1.5,0.1,2.5,0.2,3.5c-4.2,5.1-10.3,7.3-16.1,9.9c-7.4,3.2-14.8,6.4-22.3,9.3
			c-4.5,1.7-9.2,2.9-13.9,4.2c-3.4,0.9-6.9,1.5-10.4,2c-7.7,1.1-15.4,0.6-22.2-3.2c-4.7-2.6-9.4-8.1-7.5-15.2
			c2-7.7,3.8-15.5,5.7-23.2c2.3-9.3,4.6-18.6,6.9-27.8c3.5-13.7,7-27.4,10.4-41.1c0.8-3,1.3-6,2.1-9c0.9-3.1,1.4-6.5,5.3-7.3
			c0.2-0.1,0.5-0.4,0.6-0.7c4.9-7.9,20.1-7.6,24,1.5c0.1,0.3,0.4,0.4,0.5,0.4c2.2,10.1-0.7,19.3-3,28.7c-1.3,5.3-2.3,10.7-3.7,16
			c-1.8,7-3.9,14-5.9,21c-2.8,9.6-5.6,19.3-8.3,28.9c-1.1,3.6-2.2,7.3-3.2,10.9C475.2,268,475.2,268.9,475.1,269.9z"/>
		<path d="M595,150.8c2.5,0.2,5,0.1,7.4,0.7c3.7,1,4.8,3.9,3.6,7.7c-1.9,6-4,12-5.8,18.1c-3.2,11.1-6.4,22.2-9.1,33.4
			c-2.3,9.5-4.1,19-5.8,28.6c-1.2,7-1.9,14-3.1,21c-1,5.8-2.4,11.5-3.5,17.2c-0.8,4-1.7,7.9-2.1,11.9c-0.5,4.6-1.7,5.8-6,4.4
			c-3.4-1.1-7.3-2.4-8.9-5.9c-1.1-2.5-0.9-5.6-1.5-8.4c-0.4-1.8-1.1-3.6-2.1-5c-1.9-2.7-1.8-5.5-1.6-8.5c0.6-8,1.3-16,1.9-24.1
			c0.5-7,0.4-14.1,1.4-21c1.5-9.6,3.8-19,5.8-28.5c1.6-7.5,3.4-15,5.2-22.4c1.7-6.7,3.8-13.3,10.8-16.7
			C585.8,151.4,590.3,150.6,595,150.8z"/>
		<path d="M789.5,256.8c1-8,2-16.1,2.9-24.1c0.7-5.8,1.2-11.7,2.1-17.5c0.6-4.1,1.8-8.2,2.8-12.2c2-8.1,3.9-16.1,6-24.1
			c2-8.1,7.4-13.1,14.9-16.3c6.8-2.9,13.4-2.4,20,0.3c2.1,0.9,4.6,5.5,3,8.6c-2,3.8-4.5,7.4-6.2,11.3c-2.2,5.2-4.2,10.5-5.8,16
			c-2,6.7-3.7,13.5-5.4,20.4c-3.1,12.5-5.8,25-7.1,37.8c-0.6,6-0.2,12.1-0.4,18.2c-0.1,3.5-0.1,7.1-0.9,10.4c-1.2,5-4.6,6.3-9.9,3.3
			c-11-6.1-15-16.1-15.4-28c0-1.3,0-2.6,0-3.8C789.9,256.8,789.7,256.8,789.5,256.8z"/>
	</g>
	<g>
		<path d="M324.1,84.1c0-16.6,0-33.1,0-49.7c3,0,5.9,0,9.1,0c0,21.9,0,43.6,0,65.5c-2.7,0-5.3,0-8,0c-12.9-16.8-25.8-33.7-38.9-50.8
			c0,17.1,0,33.8,0,50.7c-3.1,0-6,0-9,0c0-21.7,0-43.5,0-65.5c2.9,0,5.9,0,8.9,0C298.7,50.9,311.3,67.4,324.1,84.1z"/>
		<path d="M528.4,65.8c0,10.1,0,20,0,30.5c-3.9,1.2-7.8,2.8-11.8,3.7c-6.4,1.4-12.8,1.5-19.4,0.2c-12.4-2.5-22.4-13-24-25.5
			c-0.9-7.2-0.7-14.3,2.1-21.1c4.2-9.9,11.5-16.2,22-18.9c9.8-2.5,19.2-1.2,28.6,2.2c0,2.9,0,5.6,0,8.4c-3.2-1-6.3-2.4-9.5-3
			c-8.8-1.6-17.4-1.6-25,4.1c-4.9,3.7-7.4,8.8-8.6,14.6c-1.2,5.9-0.6,11.7,1.4,17.4c3,8.5,10.7,14,19.6,14.5
			c4.6,0.3,9.2,0.1,13.6-1.5c0.6-0.2,1.1-0.5,1.7-0.7c0-5.8,0-11.5,0-17.5c-5.4,0-10.6,0-15.9,0c-0.9-2.5-1.7-4.9-2.7-7.5
			C510,65.8,519.1,65.8,528.4,65.8z"/>
		<path d="M401.7,96.4c-3.7,1.2-7.5,2.8-11.5,3.6c-3.9,0.8-8,1.1-12.1,1c-17.1-0.1-29.8-10.7-31.9-28c-1.2-9.9,0.8-19.3,7.2-27.4
			c4.7-5.9,11-9.5,18.4-11.1c9-2,17.8-1,26.4,2.2c0.4,0.1,0.7,0.3,1.1,0.6c0,2.7,0,5.4,0,8.2c-2.7-0.9-5.1-2-7.7-2.6
			c-9.5-2.3-18.7-2.4-27,3.8c-4.7,3.5-7.1,8.4-8.3,14c-1.4,7-0.9,13.9,2.4,20.4c3.6,7,9.5,10.7,17.3,11.9c5.8,0.9,11.1-0.3,16.4-1.9
			c0-6,0-11.7,0-17.6c-5.4,0-10.6,0-15.8,0c-0.9-2.5-1.7-4.9-2.6-7.4c9.4,0,18.5,0,27.7,0C401.7,76,401.7,85.8,401.7,96.4z"/>
		<path d="M427.2,83c-2.1,5.7-4.2,11.4-6.2,17c-3.3,0-6.3,0-9.6,0c8.4-22.2,16.8-44.2,25.1-66.1c2.3,0,4.3,0,6.6,0
			c8.5,21.9,17,43.9,25.7,66.1c-3.5,0-6.6,0-9.9,0c-2.1-5.6-4.3-11.2-6.5-17C444,83,435.7,83,427.2,83z M449.3,75
			c-3.2-9-6.3-17.8-9.6-27c-3.3,9.3-6.4,18.1-9.6,27C436.8,75,443,75,449.3,75z"/>
		<path d="M553.4,62.3c7.3,0,14.1,0,21.1,0c0,2.6,0,4.9,0,7.7c-6.9,0-13.8,0-21,0c0,7.6,0,14.9,0,22.3c8,0,16,0,24.3,0
			c0,2.6,0,5,0,7.6c-11.1,0-22.3,0-33.7,0c0-21.9,0-43.8,0-65.9c11.1,0,22.2,0,33.5,0c-0.9,2.6-1.8,5-2.7,7.6c-7.2,0-14.3,0-21.5,0
			C553.4,48.5,553.4,55.3,553.4,62.3z"/>
		<path d="M228.8,34.4c11.2,0,22.2,0,33.5,0c-0.9,2.6-1.8,5-2.7,7.6c-7.2,0-14.2,0-21.3,0c0,6.9,0,13.6,0,20.6c6.9,0,13.8,0,20.9,0
			c0,2.7,0,5.1,0,7.7c-7,0-13.8,0-20.8,0c0,7.4,0,14.6,0,22.1c8,0,16,0,24.2,0c0,2.6,0,5,0,7.5c-11.2,0-22.3,0-33.7,0
			C228.8,78.2,228.8,56.4,228.8,34.4z"/>
		<path d="M212.6,37.4c0,2.7,0,5.4,0,8.1c-3.3-1.1-6.4-2.4-9.7-3.1c-8.9-1.9-17.1-0.6-23.7,6.2c-4.6,4.8-6.6,10.8-6.9,17.5
			c-0.2,7.1,1,13.7,5.6,19.4c4.1,5.1,9.5,7.4,15.8,7.9c6.3,0.5,12.1-1.3,17.7-4.3c0.9,2.5,1.8,4.9,2.7,7.3c-4.2,2.6-8.8,4-13.4,4.6
			c-7,0.8-14.1,0.6-20.7-2.6c-9.2-4.3-14.6-11.8-16.5-21.6c-2-10.2-1.1-20.1,5.1-29c6.3-9,14.9-13.7,25.9-14
			c5.4-0.1,10.8,0.2,15.9,2.3c0.5,0.2,1,0.4,1.5,0.6C212.1,36.9,212.3,37.2,212.6,37.4z"/>
	</g>
	<g>
		<path d="M66.8,0.3C67.7,0.5,68.6,1,69.5,1c7,0.1,14,0,21.6,0c0.9,1.8,2.1,3.6,2.5,5.5c1.4,6.6,2.6,13.2,3.8,19.8
			c0.8,4,1.6,8.1,2.5,12.5c-8.3,2.8-16.5,5.6-25,8.5c-0.6-1.9-1.1-3.4-1.4-4.9c-1.1-5.4-2-10.9-3.1-16.3c-1.1-5.4-2.3-10.8-3.4-16.2
			c-0.6-3.2-0.9-6.4-1.4-9.6C66.1,0.3,66.4,0.3,66.8,0.3z"/>
		<path d="M120.6,43.2c0.5,0.5,1.3,0.9,1.7,1.6c2.9,5,5.9,10,8.6,15.1c2,3.6,1.3,5.4-2,8.4c-3.9,3.4-7.5,7.1-11.4,10.5
			c-3.3,2.9-6.8,5.7-10.6,8.8c-5.9-5.1-12.1-10.5-18.6-16.2C99.1,62,109.7,52.8,120.6,43.2z"/>
		<path d="M112.2,108.1c-3.8,6.5-7.4,12.6-11.1,19c-10.6-2.7-20.5-6.4-30.4-9.9c0-4.9,3.8-21.5,4.8-22.3
			C87.4,100.2,100.1,103.2,112.2,108.1z"/>
		<path d="M54.2,130.8c-6.2,0-11.6,0-17,0c-2.9,0-4.4-2.2-5-6.2c-0.6-4.1-1.6-8.2-2.3-12.3c-0.6-3.3-1.3-6.6-2-10.4
			c6.4-2.3,12.9-4.6,19.4-6.9C49.5,106.8,51.8,118.7,54.2,130.8z"/>
		<path d="M33.3,71.5C25,78.7,17,85.7,8.7,93c-1.9-3.2-3.6-6-5.3-8.8c-0.8-1.4-1.6-2.9-2.4-4.3c-1-1.8-0.6-4.1,0.9-5.4
			c5.2-4.6,10.4-9.3,15.7-13.9c0.5-0.5,1.3-0.7,2-1.2C24.3,63.5,28.8,67.5,33.3,71.5z"/>
		<path d="M28.3,23.5c7.5,2.5,14.5,4.9,21.9,7.4c-1.1,5.6-2.1,10.9-3.2,16.6c-9.4-3.2-18.6-6.3-28.2-9.6
			C22.1,33,23.7,27.3,28.3,23.5z"/>
	</g>
</g>
</svg>
